<svg width="486" height="79" viewBox="0 0 486 79" fill="none" xmlns="http://www.w3.org/2000/svg">
<path d="M37.5 67H1.90625V59.375L21.6875 31.2812H2.375V21.3125H37V28.9062L17.2188 57.0312H37.5V67ZM71.1875 67H44.0625V21.3125H71.1875V31.2188H56.4062V38.4062H70.0938V48.3125H56.4062V56.9375H71.1875V67ZM91.5312 50.375V67H79.1875V21.3125H94.1562C106.573 21.3125 112.781 25.8125 112.781 34.8125C112.781 40.1042 110.198 44.1979 105.031 47.0938L118.344 67H104.344L94.6562 50.375H91.5312ZM91.5312 41.0938H93.8438C98.1562 41.0938 100.312 39.1875 100.312 35.375C100.312 32.2292 98.1979 30.6562 93.9688 30.6562H91.5312V41.0938ZM150.531 67L148.281 58.4375H133.438L131.125 67H117.562L132.469 21.125H148.938L164.031 67H150.531ZM145.719 48.3125L143.75 40.8125C143.292 39.1458 142.729 36.9896 142.062 34.3438C141.417 31.6979 140.99 29.8021 140.781 28.6562C140.594 29.7188 140.219 31.4688 139.656 33.9062C139.115 36.3438 137.896 41.1458 136 48.3125H145.719ZM181.156 67H169V21.3125H196V31.2188H181.156V39.9375H194.844V49.8438H181.156V67ZM203.5 67V21.3125H215.906V67H203.5ZM225.812 67V21.3125H238.156V57.0312H255.75V67H225.812ZM291.094 67L288.844 58.4375H274L271.688 67H258.125L273.031 21.125H289.5L304.594 67H291.094ZM286.281 48.3125L284.312 40.8125C283.854 39.1458 283.292 36.9896 282.625 34.3438C281.979 31.6979 281.552 29.8021 281.344 28.6562C281.156 29.7188 280.781 31.4688 280.219 33.9062C279.677 36.3438 278.458 41.1458 276.562 48.3125H286.281Z" fill="white"/>
<circle cx="335.5" cy="40.5" r="36.5" fill="white"/>
<path d="M318.5 62H354.094V54.375L334.312 26.2812H353.625V16.3125H319V23.9062L338.781 52.0312H318.5V62Z" fill="#12014F"/>
</svg>
